<?xml version="1.0" encoding="UTF-8" standalone="no"?> <svg xmlns="http://www.w3.org/2000/svg" xmlns:xlink="http://www.w3.org/1999/xlink" xmlns:serif="http://www.serif.com/" width="100%" height="100%" viewBox="0 0 3205 1646" xml:space="preserve" style="fill-rule:evenodd;clip-rule:evenodd;stroke-linejoin:round;stroke-miterlimit:1.41421;"> <g transform="matrix(4.16667,0,0,4.16667,0,0)"> <path d="M534.675,93.816L534.675,290.682C534.675,318.192 534.079,335.971 532.901,344.002C531.713,352.015 527.522,360.479 520.307,369.351C513.091,378.142 503.055,384.747 490.188,389.135C477.311,393.469 461.119,395.388 441.602,394.935C417.599,394.376 398.324,389.852 383.773,381.469C369.224,373.187 361.696,357.371 361.203,333.953L434.075,333.561C434.075,344.531 438.105,350.02 446.165,350.04C451.949,350.052 455.788,348.359 457.683,344.931C459.566,341.509 460.514,334.334 460.514,323.404L460.514,304.354C454.044,310.537 447.223,315.2 440.069,318.371C432.915,321.523 425.418,323.122 417.579,323.204C404.017,323.344 392.841,320.715 384.065,315.354C375.288,310.041 369.285,303.015 366.05,294.271C362.815,285.566 361.203,273.111 361.203,256.884L361.203,168.046C361.203,144.83 365.434,127.671 373.899,116.517C382.363,105.278 395.241,98.607 412.552,96.567C422.003,95.453 430.628,96.417 438.407,99.486C446.185,102.585 453.119,107.793 459.225,115.141L464.384,101.944L534.675,93.816ZM459.225,163.643C459.225,151.906 458.57,144.478 457.259,141.377C455.949,138.281 453.068,136.938 448.595,137.371C444.241,137.796 441.158,139.919 439.354,143.74C437.551,147.556 436.654,154.814 436.654,165.54L436.654,250.997C436.654,262.371 437.328,269.728 438.699,273.06C440.069,276.406 442.93,278.008 447.285,277.87C452.263,277.716 455.495,275.557 456.987,271.383C458.478,267.203 459.225,257.813 459.225,243.227L459.225,163.643Z" style="fill:rgb(0,91,171);"></path> <path d="M172.183,80.442L172.183,134.696L125.108,139.994L125.108,350.416L46.431,350.184L46.431,148.848L0,154.076L0,104.821L172.183,80.442Z" style="fill:rgb(0,91,171);fill-rule:nonzero;"></path> <path d="M239.197,210.255L168.261,215.195L168.261,200.329C168.261,183.184 170.458,169.757 174.871,160.013C179.274,150.227 188.121,141.014 201.401,132.322C214.682,123.529 231.933,117.843 253.152,115.345C278.596,112.349 297.771,114.401 310.678,121.576C323.586,128.875 331.345,138.801 333.953,151.293C336.555,163.829 337.865,190.052 337.865,229.933L337.865,351.042L264.348,350.827L264.348,330.019C259.773,338.379 253.869,344.631 246.634,348.767C239.399,352.874 230.774,354.894 220.758,354.843C207.64,354.777 195.618,351.363 184.675,344.665C173.732,338.042 168.261,323.608 168.261,301.291L168.261,283.138C168.261,266.6 171.163,255.192 176.989,248.89C182.801,242.552 197.221,234.662 220.254,225.097C244.89,214.544 258.079,207.553 259.812,204.287C261.545,201.016 262.414,194.514 262.414,184.777C262.414,172.582 261.475,164.719 259.601,161.199C257.728,157.697 254.615,156.152 250.261,156.572C245.304,157.052 242.221,158.894 241.011,162.078C239.802,165.257 239.197,173.272 239.197,186.115L239.197,210.255ZM262.414,240.469C250.684,249.325 243.883,256.526 242.009,262.149C240.136,267.762 239.197,275.749 239.197,286.121C239.197,297.982 240.015,305.625 241.646,309.053C243.278,312.486 246.513,314.167 251.349,314.091C255.943,314.017 258.936,312.609 260.328,309.849C261.717,307.084 262.414,299.876 262.414,288.21L262.414,240.469Z" style="fill:rgb(0,91,171);fill-rule:nonzero;"></path> <path d="M639.057,81.743L639.057,351.932L561.671,351.706L561.671,90.695L639.057,81.743Z" style="fill:rgb(237,28,36);fill-rule:nonzero;"></path> <path d="M639.057,14.338L639.057,65.154L561.671,74.653L561.671,25.294L639.057,14.338Z" style="fill:rgb(237,28,36);fill-rule:nonzero;"></path> <path d="M745.529,0.313L745.529,70.162L765.518,67.913L765.518,114.296L745.529,116.172L745.529,270.494C745.529,289.48 746.353,300.047 748.016,302.188C749.669,304.333 756.581,305.303 768.744,305.109L768.744,352.314L738.454,352.226C721.354,352.177 709.154,351.327 701.846,349.665C694.532,348.013 688.093,344.251 682.521,338.386C676.948,332.561 673.482,325.887 672.121,318.366C670.751,310.864 670.078,293.195 670.078,265.362L670.078,123.239L653.954,124.752L653.954,80.469L670.078,78.655L670.078,10.228L745.529,0.313Z" style="fill:rgb(237,28,36);fill-rule:nonzero;"></path> </g> </svg> 